<svg width="24" height="24" viewBox="0 0 24 24" fill="none" xmlns="http://www.w3.org/2000/svg">
<g id="user-profile 2" clip-path="url(#clip0_3_9)">
<path id="Vector" d="M12 23.8125C5.48625 23.8125 0.1875 18.5138 0.1875 12C0.1875 5.48625 5.48625 0.1875 12 0.1875C18.5138 0.1875 23.8125 5.48625 23.8125 12C23.8125 18.5138 18.5138 23.8125 12 23.8125Z" fill="white"/>
<path id="Vector_2" d="M12 0.375C18.4102 0.375 23.625 5.58975 23.625 12C23.625 18.4102 18.4102 23.625 12 23.625C5.58975 23.625 0.375 18.4102 0.375 12C0.375 5.58975 5.58975 0.375 12 0.375ZM12 0C5.37225 0 0 5.37225 0 12C0 18.6278 5.37225 24 12 24C18.6278 24 24 18.6278 24 12C24 5.37225 18.6278 0 12 0Z" fill="#D6D6D6"/>
<g id="Group">
<path id="Vector_3" d="M12 11.0685C13.5976 11.0685 14.8927 9.79923 14.8927 8.2335C14.8927 6.66777 13.5976 5.3985 12 5.3985C10.4024 5.3985 9.10724 6.66777 9.10724 8.2335C9.10724 9.79923 10.4024 11.0685 12 11.0685Z" fill="#0BA4E0"/>
<path id="Vector_4" d="M16.9965 16.9042C16.9965 14.1997 14.7592 12.0075 12 12.0075C9.24073 12.0075 7.00348 14.1997 7.00348 16.9042H16.9965Z" fill="#0BA4E0"/>
</g>
</g>
<defs>
<clipPath id="clip0_3_9">
<rect width="24" height="24" fill="white"/>
</clipPath>
</defs>
</svg>
